# xmcd CD database file
#
# Track frame offsets:
#	150
#	17273
#	34977
#	50874
#	70251
#	83722
#	101960
#	120684
#	137632
#	150699
#	165158
#	184966
#	198578
#	218290
#	237098
#	249332
#	262735
#	283855
#	298178
#	312891
#
# Disc length: 4439 seconds
#
# Revision: 0
# Processed by: cddbd v1.4PL0 Copyright (c) Steve Scherf et al.
# Submitted via: CDex 1.50beta9
#
DISCID=1a115514
DTITLE=Los Del Caney - Repicando El Son
DYEAR=1998
DGENRE=Salsa
TTITLE0=El Paralitico 
TTITLE1=Maria Cristina 
TTITLE2=Las Maracas De Cuba 
TTITLE3=El Regreso Del Amor 
TTITLE4=La Mujer De Antonio 
TTITLE5=Camina Como Chencha 
TTITLE6=El Reloj De Pastora 
TTITLE7=Tres Lindas Cubanas 
TTITLE8=Mami, Me Gusto 
TTITLE9=Punteame Bien El Tres 
TTITLE10=En El Ingenio 
TTITLE11=Mi Son, Mi Son 
TTITLE12=Reclamo Mistico
TTITLE13=Alegre Conga 
TTITLE14=Amame
TTITLE15=Nadie Se Salva De La Rumba 
TTITLE16=A Mi Que 
TTITLE17=Elixir De La Vida 
TTITLE18=Las Frutas Del Caney 
TTITLE19=Ensalada Cubana 
EXTD=YEAR: 1998
EXTT0=
EXTT1=
EXTT2=
EXTT3=
EXTT4=
EXTT5=
EXTT6=
EXTT7=
EXTT8=
EXTT9=
EXTT10=
EXTT11=
EXTT12=
EXTT13=
EXTT14=
EXTT15=
EXTT16=
EXTT17=
EXTT18=
EXTT19=
PLAYORDER=
